
<svg aria-hidden="true" focusable="false" fill="#6B7280" width="800px" height="800px" viewBox="0 0 32 32" version="1.1" xmlns="http://www.w3.org/2000/svg">

<path d="M30 14.75h-17c-0.69 0-1.25 0.56-1.25 1.25s0.56 1.25 1.25 1.25v0h17c0.69 0 1.25-0.56 1.25-1.25s-0.56-1.25-1.25-1.25v0zM13 6.25h17c0.69 0 1.25-0.56 1.25-1.25s-0.56-1.25-1.25-1.25v0h-17c-0.69 0-1.25 0.56-1.25 1.25s0.56 1.25 1.25 1.25v0zM6 22.75h-2c-1.794 0.002-3.248 1.456-3.25 3.25v2c0.002 1.794 1.456 3.248 3.25 3.25h2c1.794-0.002 3.248-1.456 3.25-3.25v-2c-0.002-1.794-1.456-3.248-3.25-3.25h-0zM6.75 28c-0 0.414-0.336 0.75-0.75 0.75h-2c-0.414-0-0.75-0.336-0.75-0.75v-2c0-0.414 0.336-0.75 0.75-0.75h2c0.414 0 0.75 0.336 0.75 0.75v0zM30 25.75h-17c-0.69 0-1.25 0.56-1.25 1.25s0.56 1.25 1.25 1.25v0h17c0.69 0 1.25-0.56 1.25-1.25s-0.56-1.25-1.25-1.25v0zM9.078 11.877l-5.121 5.598-1.076-1.069c-0.226-0.225-0.537-0.363-0.881-0.363-0.69 0-1.25 0.559-1.25 1.25 0 0.346 0.141 0.66 0.369 0.886l2 1.988 0.022 0.015 0.015 0.021c0.073 0.059 0.156 0.112 0.246 0.153l0.007 0.003c0.038 0.028 0.082 0.055 0.128 0.080l0.006 0.003c0.135 0.056 0.292 0.088 0.457 0.088 0.175 0 0.341-0.037 0.491-0.103l-0.008 0.003c0.053-0.031 0.098-0.061 0.14-0.094l-0.003 0.002c0.102-0.050 0.189-0.11 0.268-0.179l-0.001 0.001 0.015-0.023 0.020-0.014 6-6.559c0.205-0.222 0.331-0.52 0.331-0.847 0-0.69-0.56-1.25-1.25-1.25-0.366 0-0.696 0.158-0.924 0.409l-0.001 0.001zM9.078 0.877l-5.121 5.598-1.076-1.069c-0.226-0.223-0.536-0.361-0.878-0.361-0.69 0-1.25 0.56-1.25 1.25 0 0.345 0.14 0.658 0.366 0.884v0l2 1.987 0.022 0.015 0.015 0.021c0.072 0.058 0.153 0.109 0.24 0.15l0.007 0.003c0.040 0.029 0.086 0.058 0.134 0.084l0.007 0.003c0.135 0.056 0.292 0.088 0.456 0.088 0.175 0 0.341-0.037 0.491-0.103l-0.008 0.003c0.053-0.031 0.098-0.061 0.14-0.094l-0.003 0.002c0.102-0.050 0.189-0.11 0.268-0.179l-0.001 0.001 0.015-0.023 0.020-0.014 6-6.559c0.206-0.222 0.332-0.521 0.332-0.848 0-0.69-0.56-1.25-1.25-1.25-0.367 0-0.697 0.158-0.925 0.41l-0.001 0.001z"></path>
</svg>