<svg fill="#6B7280" version="1.1" xmlns="http://www.w3.org/2000/svg" xmlns:xlink="http://www.w3.org/1999/xlink"
    viewBox="-1.28 -1.28 34.56 34.56" xml:space="preserve" width="800px" height="800px" stroke="#6B7280"
    stroke-width="1.248">
    <g id="SVGRepo_bgCarrier" stroke-width="0"></g>
    <g id="SVGRepo_tracerCarrier" stroke-linecap="round" stroke-linejoin="round"></g>
    <g id="SVGRepo_iconCarrier">
        <g>
            <path
                d="M27,31.36H3c-1.301,0-2.36-1.059-2.36-2.36V5c0-1.301,1.059-2.36,2.36-2.36h13v0.72H3 C2.096,3.36,1.36,4.096,1.36,5v24c0,0.904,0.736,1.64,1.64,1.64h24c0.904,0,1.64-0.735,1.64-1.64V16h0.721v13 C29.36,30.302,28.302,31.36,27,31.36z M23,18.36h-9.36V9h0.72v8.131L30.745,0.746l0.51,0.509L14.869,17.64H23V18.36z">
            </path>
        </g>
    </g>
</svg>