<svg fill="#878685" 
aria-hidden="true" 
  focusable="false" viewBox="0 0 24 24" xmlns="http://www.w3.org/2000/svg" transform="rotate(270)">
<g id="SVGRepo_bgCarrier" stroke-width="0">
</g>
<g id="SVGRepo_tracerCarrier" stroke-linecap="round" stroke-linejoin="round">
</g>
<g id="SVGRepo_iconCarrier"> 
<path fill-rule="evenodd" d="M10,12 L9.99316578,12.1174742 L9.96415486,12.265993 L9.94011414,12.3416504 L9.90634622,12.4230991 L9.87532883,12.4840621 L9.80366542,12.5953066 L9.7485042,12.663147 L9.70710678,12.7071068 L7.70710678,14.7071068 L7.61289944,14.7902954 C7.25329917,15.0699015 6.74670083,15.0699015 6.38710056,14.7902954 L6.29289322,14.7071068 L6.20970461,14.6128994 C5.93009846,14.2532992 5.93009846,13.7467008 6.20970461,13.3871006 L6.29289322,13.2928932 L6.585,13 L3,13 C2.44771525,13 2,12.5522847 2,12 C2,11.4871642 2.38604019,11.0644928 2.88337887,11.0067277 L3,11 L6.585,11 L6.29289322,10.7071068 L6.20970461,10.6128994 C5.90467972,10.2206082 5.93240926,9.65337718 6.29289322,9.29289322 C6.65337718,8.93240926 7.22060824,8.90467972 7.61289944,9.20970461 L7.70710678,9.29289322 L9.70710678,11.2928932 L9.80368649,11.4048407 L9.85400455,11.4792912 L9.90632664,11.5767785 L9.95026191,11.6878575 L9.97975993,11.7992742 L9.996,11.918 L10,12 Z M13,21 C13,21.5522847 12.5522847,22 12,22 C11.4871642,22 11.0644928,21.6139598 11.0067277,21.1166211 L11,21 L11,3 C11,2.44771525 11.4477153,2 12,2 C12.5128358,2 12.9355072,2.38604019 12.9932723,2.88337887 L13,3 L13,21 Z M22,12 C22,12.5522847 21.5522847,13 21,13 L17.415,13 L17.7071068,13.2928932 C18.0675907,13.6533772 18.0953203,14.2206082 17.7902954,14.6128994 L17.7071068,14.7071068 C17.3466228,15.0675907 16.7793918,15.0953203 16.3871006,14.7902954 L16.2928932,14.7071068 L14.2928932,12.7071068 L14.2514958,12.663147 L14.1963346,12.5953066 L14.1246712,12.4840621 L14.0936538,12.4230991 L14.0598859,12.3416504 L14.0358451,12.265993 L14.0068342,12.1174742 L14,12 L14.004,11.918 L14.0202401,11.7992742 L14.0497381,11.6878575 L14.0936734,11.5767785 L14.1459955,11.4792912 L14.1963135,11.4048407 L14.2928932,11.2928932 L16.2928932,9.29289322 C16.6834175,8.90236893 17.3165825,8.90236893 17.7071068,9.29289322 C18.0675907,9.65337718 18.0953203,10.2206082 17.7902954,10.6128994 L17.7071068,10.7071068 L17.415,11 L21,11 C21.5522847,11 22,11.4477153 22,12 Z">
</path> 
</g>
</svg>