<svg aria-hidden="true" height="25" width="25" xmlns="http://www.w3.org/2000/svg" viewBox="0 0 271.452 271.452" style="enable-background:new 0 0 271.452 271.452" xml:space="preserve"><path d="M250.393 69.893H21.059C9.447 69.893 0 79.34 0 90.952V180.5c0 11.612 9.447 21.06 21.059 21.06h229.333c11.612 0 21.06-9.447 21.06-21.06V90.952c0-11.612-9.447-21.059-21.059-21.059zM88.156 141.055a7.5 7.5 0 1 1-7.328 13.087l-10.042-5.623v9.206a7.5 7.5 0 0 1-15 0v-9.205l-10.042 5.622a7.498 7.498 0 0 1-10.208-2.879 7.5 7.5 0 0 1 2.88-10.208l9.518-5.329-9.518-5.329a7.5 7.5 0 1 1 7.328-13.088l10.042 5.622v-9.205a7.5 7.5 0 0 1 15 0v9.206l10.042-5.623a7.5 7.5 0 1 1 7.328 13.088l-9.518 5.329 9.518 5.329zm72.44 0a7.5 7.5 0 1 1-7.328 13.087l-10.042-5.622v9.205a7.5 7.5 0 0 1-15 0v-9.206l-10.042 5.623a7.498 7.498 0 0 1-10.208-2.879 7.5 7.5 0 0 1 2.88-10.208l9.518-5.329-9.518-5.329a7.5 7.5 0 1 1 7.328-13.088l10.042 5.623v-9.206a7.5 7.5 0 0 1 15 0v9.205l10.042-5.622a7.501 7.501 0 0 1 7.328 13.088l-9.518 5.329 9.518 5.329zm72.441 0a7.5 7.5 0 1 1-7.328 13.087l-10.042-5.622v9.205a7.5 7.5 0 0 1-15 0v-9.205l-10.042 5.622a7.498 7.498 0 0 1-10.208-2.879 7.5 7.5 0 0 1 2.88-10.208l9.518-5.329-9.518-5.329a7.5 7.5 0 0 1-2.88-10.208 7.5 7.5 0 0 1 10.208-2.88l10.042 5.622v-9.205a7.5 7.5 0 0 1 15 0v9.205l10.042-5.622a7.5 7.5 0 0 1 7.328 13.088l-9.518 5.329 9.518 5.329z"/></svg>