<svg aria-hidden="true" focusable="false" fill="#6B7280" width="800" height="800" viewBox="0 0 20 20" xmlns="http://www.w3.org/2000/svg">
<path d="m10 0-.436.02-.431.056-.428.094-.416.133-.402.166-.387.2-.367.237-.346.266-.324.293-.293.322-.266.346-.234.367-.201.389-.166.402-.133.416-.094.426-.056.433-.02.436.018.68.056.677.092.676.129.668.164.658.201.653.238.638.268.623.305.61.181.308.211.291.067.112.035.125.004.127-.032.127-.062.113-.088.094-.11.068-.124.037-.858.162-.851.197-.842.233-.832.267-.818.3-.317.146-.297.18-.273.214-.248.244-.219.27-.184.295-.15.314-.2.543-.167.557-.129.566-.094.57-.054.579-.02.58.02.14.06.131.092.108.121.076.135.041h.144l.135-.041.121-.076.092-.108.06-.13.02-.141.018-.516.048-.511.082-.512.116-.5.148-.496.178-.483.119-.244.15-.224.18-.202.205-.175.227-.149.244-.113.781-.29.791-.253.8-.22.813-.188.817-.155.23-.056.223-.094.201-.127.18-.16.15-.184.121-.209.088-.222.047-.235.014-.238-.028-.238-.064-.23-.1-.217-.13-.198-.159-.22-.136-.229-.28-.56-.248-.577-.217-.586-.185-.6-.15-.607-.12-.615-.086-.619-.052-.623L6 5.002l.02-.393.058-.388.094-.381.133-.37.168-.355.2-.336.235-.316.262-.291.293-.264.314-.234.338-.2.356-.17.369-.13.379-.096.388-.058L10 1l.393.02.388.058.38.096.368.13.358.17.336.2.314.234.293.264.262.29.234.317.201.336.168.356.133.369.096.38.058.39.018.392-.016.627-.052.623-.086.62-.117.614-.153.608-.185.6-.217.585-.248.576-.28.561-.136.229-.158.22-.131.197-.1.217-.064.23-.028.239.014.238.049.235.086.222.12.21.153.183.178.16.201.127.223.094.23.056.252.047a1.5 1.5 0 0 1 .125-.992l-.213-.04-.125-.038-.11-.068-.087-.094-.063-.113-.029-.127.002-.127.035-.125.067-.112.21-.29.182-.31.305-.609.27-.623.236-.638.201-.653.164-.658.129-.668.092-.676.056-.677.018-.68-.018-.436-.058-.433-.094-.426-.133-.416-.166-.402-.2-.389-.233-.367-.268-.346-.293-.322-.324-.293-.344-.266L12.5.67l-.387-.201-.402-.166-.416-.133-.428-.094-.431-.056L10 0zm5 13 3 3h-7v1h7l-3 3h1.5l3.5-3.5-3.5-3.5H15z" style="fill:#6B7280;fill-opacity:1;stroke:none;stroke-width:0"/>
</svg>